<svg xmlns="http://www.w3.org/2000/svg" width="240" height="35" viewBox="0 0 240 35" fill="none"><path d="M58.6336 24.9095H63.6887C63.8553 24.9095 63.9869 25.0479 63.981 25.2139C63.8334 29.5287 60.5481 33.7866 53.2891 33.7866C46.0301 33.7866 41.9205 29.013 41.9205 21.6086C41.9205 14.2042 46.2625 9.47434 53.2891 9.47434C59.6522 9.47434 63.734 13.119 63.8919 18.0557C63.8977 18.2189 63.7633 18.3514 63.5996 18.3514H58.5459C58.3866 18.3514 58.258 18.2232 58.2536 18.0645C58.1616 15.0957 56.6285 12.3732 53.2906 12.3732C49.4411 12.3732 47.8306 17.0127 47.8306 21.6071C47.8306 26.2016 48.8595 30.8863 53.2906 30.8863C56.7483 30.8863 58.2449 27.8068 58.3428 25.1848C58.3486 25.0304 58.4787 24.908 58.6336 24.908V24.9095Z" fill="#261C0A"></path><path d="M66.5152 1.71159H71.7939C71.9546 1.71159 72.0862 1.84269 72.0862 2.00292V32.9154C72.0862 33.0757 71.9546 33.2068 71.7939 33.2068H66.5152C66.3544 33.2068 66.2229 33.0757 66.2229 32.9154V2.00292C66.2229 1.84269 66.3544 1.71159 66.5152 1.71159Z" fill="#261C0A"></path><path d="M97.8207 21.6086C97.8207 28.7901 92.9877 33.7866 86.0503 33.7866C79.1128 33.7866 74.3236 28.7901 74.3236 21.6086C74.3236 14.4271 79.0675 9.47434 86.0503 9.47434C93.033 9.47434 97.8207 14.3368 97.8207 21.6086ZM91.7338 21.6086C91.7338 16.0775 89.451 12.3746 86.0503 12.3746C82.6495 12.3746 80.4105 16.0775 80.4105 21.6086C80.4105 27.1397 82.5136 30.8877 86.0503 30.8877C89.5869 30.8877 91.7338 27.4077 91.7338 21.6086Z" fill="#261C0A"></path><path d="M114.224 10.0992H119.323C119.484 10.0992 119.615 10.2303 119.615 10.3906V23.7062C119.615 29.5053 117.512 33.788 109.813 33.788C103.01 33.788 100.057 30.308 100.057 23.6174V10.392C100.057 10.2318 100.188 10.1007 100.349 10.1007H105.448C105.609 10.1007 105.74 10.2318 105.74 10.392V25.2678C105.74 28.6575 106.68 30.8892 109.813 30.8892C112.274 30.8892 113.93 29.1047 113.93 25.447V10.392C113.93 10.2318 114.062 10.1007 114.222 10.1007L114.224 10.0992Z" fill="#261C0A"></path><path d="M144.097 2.00292V32.9154C144.097 33.0757 143.966 33.2068 143.805 33.2068H139.331C139.171 33.2068 139.039 33.0757 139.039 32.9154V30.0487C139.039 29.9001 138.84 29.8462 138.767 29.9758C137.893 31.5185 135.634 33.7865 131.834 33.7865C125.166 33.7865 121.63 28.9241 121.63 21.6086C121.63 14.2931 125.345 9.47431 131.834 9.47431C135.5 9.47431 137.221 11.1684 137.977 12.0614C138.064 12.1648 138.234 12.1022 138.234 11.9667V2.00292C138.234 1.84269 138.365 1.71159 138.526 1.71159H143.805C143.966 1.71159 144.097 1.84269 144.097 2.00292ZM138.234 21.6523C138.234 15.8532 136.131 12.3731 132.594 12.3731C129.775 12.3731 127.716 15.8532 127.716 21.6523C127.716 27.4514 129.417 30.8863 132.594 30.8863C135.951 30.8863 138.234 27.1833 138.234 21.6523Z" fill="#261C0A"></path><path d="M169.249 21.6086C169.249 28.9241 165.668 33.7865 159 33.7865C155.22 33.7865 152.961 31.4952 152.067 29.9525C151.992 29.8243 151.795 29.8797 151.795 30.0268V32.9154C151.795 33.0757 151.663 33.2068 151.502 33.2068H147.074C146.913 33.2068 146.782 33.0757 146.782 32.9154V2.00292C146.782 1.84269 146.913 1.71159 147.074 1.71159H152.353C152.514 1.71159 152.645 1.84269 152.645 2.00292V11.9667C152.645 12.1022 152.815 12.1648 152.902 12.0614C153.658 11.1684 155.375 9.47431 159.001 9.47431C165.535 9.47431 169.25 14.4708 169.25 21.6086H169.249ZM163.163 21.6523C163.163 15.8532 161.104 12.3731 158.285 12.3731C154.75 12.3731 152.645 15.8532 152.645 21.6523C152.645 27.4514 154.883 30.8863 158.285 30.8863C161.462 30.8863 163.163 27.1833 163.163 21.6523Z" fill="#261C0A"></path><path d="M193.015 21.6523V22.7434C193.015 22.9036 192.883 23.0347 192.722 23.0347H177.151C176.988 23.0347 176.857 23.1673 176.858 23.329C176.874 25.6553 177.183 30.8863 182.451 30.8863C185.392 30.8863 187.289 28.5542 187.413 25.9408C187.42 25.7864 187.549 25.667 187.704 25.667H192.535C192.702 25.667 192.835 25.8068 192.828 25.9729C192.664 29.887 189.345 33.7851 182.54 33.7851C175.736 33.7851 171.039 29.0567 171.039 21.6509C171.039 14.245 175.381 9.47292 182.004 9.47292C188.627 9.47292 193.015 14.1125 193.015 21.6509V21.6523ZM186.722 19.645C186.884 19.645 187.017 19.5125 187.014 19.3508C186.961 15.39 185.81 12.3732 182.272 12.3732C178.733 12.3732 177.117 15.5124 177.038 19.3493C177.035 19.511 177.168 19.6436 177.33 19.6436H186.72L186.722 19.645Z" fill="#261C0A"></path><path d="M217.272 2.00292V32.9154C217.272 33.0757 217.14 33.2068 216.979 33.2068H212.506C212.345 33.2068 212.214 33.0757 212.214 32.9154V30.0487C212.214 29.9001 212.015 29.8462 211.942 29.9758C211.068 31.5185 208.808 33.7865 205.009 33.7865C198.34 33.7865 194.805 28.9241 194.805 21.6086C194.805 14.2931 198.52 9.47431 205.009 9.47431C208.674 9.47431 210.396 11.1699 211.151 12.0614C211.239 12.1648 211.408 12.1022 211.408 11.9667V2.00292C211.408 1.84269 211.54 1.71159 211.701 1.71159H216.979C217.14 1.71159 217.272 1.84269 217.272 2.00292ZM211.408 21.6523C211.408 15.8532 209.305 12.3731 205.769 12.3731C202.95 12.3731 200.89 15.8532 200.89 21.6523C200.89 27.4514 202.591 30.8863 205.769 30.8863C209.126 30.8863 211.408 27.1833 211.408 21.6523Z" fill="#261C0A"></path><path d="M225.112 25.4674H219.864C219.696 25.4674 219.563 25.6087 219.572 25.7777C219.847 31.1063 223.772 33.7866 230.189 33.7866C236.219 33.7866 240 31.0029 240 26.8251C240 22.3763 237.07 20.9065 233.016 19.9902C230.223 19.3784 225.384 18.8802 225.384 15.4162C225.384 13.3783 227.122 12.2246 229.2 12.2246C232.133 12.2246 233.345 13.8459 233.421 16.5961C233.425 16.752 233.555 16.8758 233.713 16.8758H238.872C239.043 16.8758 239.176 16.7287 239.163 16.5583C238.819 11.9726 235.338 9.47292 229.643 9.47292C223.948 9.47292 220.002 12.3936 220.002 16.6384C220.002 21.6975 224.669 23.0216 228.962 23.7354C232.742 24.4492 235.06 25.3217 235.06 27.8345C235.06 29.7414 233.289 31.0029 230.666 31.0029C227.677 31.0029 225.659 29.2271 225.402 25.7398C225.39 25.5869 225.266 25.4689 225.112 25.4689V25.4674Z" fill="#261C0A"></path><path d="M31.594 10.0614C28.3934 6.87124 23.5999 6.24194 19.768 8.16915C19.616 8.24636 19.4743 8.0497 19.5956 7.9288L24.0354 3.50336C24.1874 3.35186 24.1801 3.10423 24.0223 2.95856C20.015 -0.741446 13.7571 -0.651131 9.8609 3.23241C6.6238 6.45899 6.01584 11.3127 8.03409 15.1525C8.11447 15.304 7.91718 15.4483 7.79588 15.3273L3.26395 10.8101C3.11196 10.6586 2.86351 10.6659 2.71737 10.8232C-0.994693 14.8175 -0.904084 21.0551 2.99212 24.9386C6.19268 28.1288 10.9877 28.7581 14.8181 26.8309C14.9701 26.7537 15.1119 26.9503 14.9906 27.0712L10.5507 31.4966C10.3987 31.6481 10.406 31.8958 10.5639 32.0415C14.5711 35.7415 20.829 35.6511 24.7252 31.7676C27.9623 28.541 28.5703 23.6873 26.552 19.8475C26.4716 19.696 26.6689 19.5518 26.7902 19.6727L31.3222 24.1899C31.4742 24.3414 31.7226 24.3341 31.8687 24.1768C35.5808 20.1825 35.4902 13.9449 31.594 10.0614ZM23.9989 17.6843C21.8915 18.5277 18.3226 22.0864 17.4765 24.1855C17.4107 24.3501 17.1754 24.3501 17.1096 24.1855C16.2635 22.0849 12.6932 18.5277 10.5872 17.6843C10.4221 17.6187 10.4221 17.3842 10.5872 17.3172C12.6946 16.4738 16.2635 12.9151 17.1096 10.816C17.1754 10.6514 17.4107 10.6514 17.4765 10.816C18.3226 12.9165 21.8929 16.4738 23.9989 17.3172C24.164 17.3827 24.164 17.6173 23.9989 17.6843Z" fill="#261C0A"></path></svg>